<mxfile host="app.diagrams.net" modified="2024-06-10T01:05:42.205Z" agent="Mozilla/5.0 (Windows NT 10.0; Win64; x64) AppleWebKit/537.36 (KHTML, like Gecko) Chrome/125.0.0.0 Safari/537.36" etag="vc6rcNgoDhROzwysqbzE" version="24.4.13" type="github">
  <diagram id="C5RBs43oDa-KdzZeNtuy" name="Page-1">
    <mxGraphModel dx="1434" dy="738" grid="1" gridSize="10" guides="1" tooltips="1" connect="1" arrows="1" fold="1" page="1" pageScale="1" pageWidth="827" pageHeight="1169" math="0" shadow="0">
      <root>
        <mxCell id="WIyWlLk6GJQsqaUBKTNV-0" />
        <mxCell id="WIyWlLk6GJQsqaUBKTNV-1" parent="WIyWlLk6GJQsqaUBKTNV-0" />
        <mxCell id="_gHWQhR9DUMVwC6P0-jH-0" value="Usuario" style="rounded=1;whiteSpace=wrap;html=1;" vertex="1" parent="WIyWlLk6GJQsqaUBKTNV-1">
          <mxGeometry x="160" y="200" width="120" height="80" as="geometry" />
        </mxCell>
        <mxCell id="_gHWQhR9DUMVwC6P0-jH-1" value="Post" style="rounded=1;whiteSpace=wrap;html=1;" vertex="1" parent="WIyWlLk6GJQsqaUBKTNV-1">
          <mxGeometry x="570" y="200" width="120" height="80" as="geometry" />
        </mxCell>
        <mxCell id="_gHWQhR9DUMVwC6P0-jH-2" value="possui" style="html=1;whiteSpace=wrap;aspect=fixed;shape=isoRectangle;" vertex="1" parent="WIyWlLk6GJQsqaUBKTNV-1">
          <mxGeometry x="370" y="200" width="116.67" height="70" as="geometry" />
        </mxCell>
        <mxCell id="_gHWQhR9DUMVwC6P0-jH-4" style="edgeStyle=orthogonalEdgeStyle;rounded=0;orthogonalLoop=1;jettySize=auto;html=1;entryX=0.017;entryY=0.543;entryDx=0;entryDy=0;entryPerimeter=0;endArrow=none;endFill=0;" edge="1" parent="WIyWlLk6GJQsqaUBKTNV-1" source="_gHWQhR9DUMVwC6P0-jH-0" target="_gHWQhR9DUMVwC6P0-jH-2">
          <mxGeometry relative="1" as="geometry" />
        </mxCell>
        <mxCell id="_gHWQhR9DUMVwC6P0-jH-5" style="edgeStyle=orthogonalEdgeStyle;rounded=0;orthogonalLoop=1;jettySize=auto;html=1;entryX=0.977;entryY=0.5;entryDx=0;entryDy=0;entryPerimeter=0;endArrow=none;endFill=0;" edge="1" parent="WIyWlLk6GJQsqaUBKTNV-1" source="_gHWQhR9DUMVwC6P0-jH-1" target="_gHWQhR9DUMVwC6P0-jH-2">
          <mxGeometry relative="1" as="geometry" />
        </mxCell>
        <UserObject label="1,1" placeholders="1" name="Variable" id="_gHWQhR9DUMVwC6P0-jH-7">
          <mxCell style="text;html=1;strokeColor=none;fillColor=none;align=center;verticalAlign=middle;whiteSpace=wrap;overflow=hidden;" vertex="1" parent="WIyWlLk6GJQsqaUBKTNV-1">
            <mxGeometry x="260" y="220" width="80" height="20" as="geometry" />
          </mxCell>
        </UserObject>
        <UserObject label="0, n" placeholders="1" name="Variable" id="_gHWQhR9DUMVwC6P0-jH-10">
          <mxCell style="text;html=1;strokeColor=none;fillColor=none;align=center;verticalAlign=middle;whiteSpace=wrap;overflow=hidden;" vertex="1" parent="WIyWlLk6GJQsqaUBKTNV-1">
            <mxGeometry x="510" y="220" width="80" height="20" as="geometry" />
          </mxCell>
        </UserObject>
        <mxCell id="_gHWQhR9DUMVwC6P0-jH-11" value="&lt;ul&gt;&lt;li&gt;id&lt;/li&gt;&lt;li&gt;username&lt;/li&gt;&lt;li&gt;email&lt;/li&gt;&lt;li&gt;senha&lt;/li&gt;&lt;li&gt;foto_perfil&lt;/li&gt;&lt;li&gt;posts&lt;/li&gt;&lt;li&gt;cursos&lt;/li&gt;&lt;/ul&gt;" style="text;strokeColor=none;fillColor=none;html=1;whiteSpace=wrap;verticalAlign=middle;overflow=hidden;" vertex="1" parent="WIyWlLk6GJQsqaUBKTNV-1">
          <mxGeometry x="40" y="200" width="120" height="130" as="geometry" />
        </mxCell>
        <mxCell id="_gHWQhR9DUMVwC6P0-jH-12" value="&lt;ul&gt;&lt;li&gt;id&lt;/li&gt;&lt;li&gt;titulo&lt;/li&gt;&lt;li&gt;corpo&lt;/li&gt;&lt;li&gt;data_criacao&lt;/li&gt;&lt;li&gt;id_usuario&lt;/li&gt;&lt;/ul&gt;" style="text;strokeColor=none;fillColor=none;html=1;whiteSpace=wrap;verticalAlign=middle;overflow=hidden;" vertex="1" parent="WIyWlLk6GJQsqaUBKTNV-1">
          <mxGeometry x="690" y="200" width="120" height="100" as="geometry" />
        </mxCell>
      </root>
    </mxGraphModel>
  </diagram>
</mxfile>
